<?xml version="1.0" encoding="UTF-8"?>
<svg id="Capa_1" xmlns="http://www.w3.org/2000/svg" version="1.1" viewBox="0 0 595.28 841.89">
  <!-- Generator: Adobe Illustrator 29.0.0, SVG Export Plug-In . SVG Version: 2.1.0 Build 186)  -->
  <defs>
    <style>
      .st0 {
        font-size: 128.13px;
      }

      .st0, .st1 {
        fill: #1e1e1c;
      }

      .st0, .st2 {
        font-family: Bricle-Italic, Bricle;
        font-style: italic;
      }

      .st3 {
        fill: #68230d;
      }

      .st2 {
        font-size: 79.33px;
      }

      .st2, .st4 {
        fill: #ee7a2e;
      }
    </style>
  </defs>
  <text class="st0" transform="translate(215.83 413.1) rotate(5.79)"><tspan x="0" y="0">Q</tspan></text>
  <text class="st2" transform="translate(35.97 540.23)"><tspan x="0" y="0">Quickafe</tspan></text>
  <rect class="st4" x="106.14" y="291.66" width="149.58" height="12.89" rx="5.01" ry="5.01"/>
  <rect class="st4" x="158.87" y="317.13" width="70.96" height="12.89" rx="3.45" ry="3.45"/>
  <path class="st1" d="M333.82,351.28l-1.47,4.06c-5.48,15.44-22.01,26.42-37.4,25.21l-9.07-1.22c-14.79-2.86-22.3-17.09-16.76-32.52l1.47-4.06c5.68-15.97,23.2-27.19,39.05-25.05l5.85.79c15.85,2.14,24.07,16.83,18.33,32.8ZM330.58,348.14c4.16-11.68-2-22.38-13.91-24.02l-11.84-1.63c-11.84-1.63-24.82,6.42-29.06,18.1l-3.42,9.45c-4.15,11.61,2,22.38,13.91,24.02l.43.06,10.92,1.51.5.07c11.84,1.63,24.83-6.5,29.06-18.1l3.42-9.45Z"/>
  <g>
    <ellipse class="st3" cx="502.67" cy="461.47" rx="22.3" ry="18.73" transform="translate(-100.02 781.47) rotate(-70.52)"/>
    <path class="st4" d="M513.74,442.02s.04.03.11.1c.07.06.18.17.3.31.25.29.57.77.84,1.45.27.68.48,1.55.55,2.57.07,1.02,0,2.19-.28,3.42-.14.62-.32,1.25-.57,1.89-.24.64-.54,1.29-.89,1.92-.7,1.28-1.63,2.52-2.73,3.66-1.1,1.14-2.38,2.17-3.76,3.06-.69.44-1.41.86-2.14,1.24-.74.38-1.48.72-2.26,1.04-.18.07-.38.15-.54.22l-.51.22c-.34.15-.69.31-1.02.48-.67.33-1.32.68-1.93,1.07-1.23.77-2.32,1.68-3.2,2.7-.88,1.02-1.54,2.17-1.99,3.34-.45,1.18-.71,2.38-.84,3.51-.13,1.13-.14,2.2-.11,3.15,0,.48.05.92.07,1.33.04.41.07.79.11,1.14.04.34.08.65.11.92.03.27.07.49.1.68.05.37.08.57.08.57,0,0-.07-.19-.21-.53-.14-.35-.33-.86-.55-1.53-.1-.34-.21-.71-.33-1.12-.1-.41-.23-.86-.31-1.34-.2-.97-.36-2.08-.39-3.32-.03-1.24.1-2.61.47-4.03.2-.7.45-1.43.79-2.13.34-.7.75-1.39,1.23-2.05.97-1.3,2.2-2.46,3.58-3.4.68-.48,1.4-.92,2.14-1.3.37-.2.74-.38,1.12-.56l.58-.26c.2-.09.37-.16.55-.24.68-.28,1.38-.62,2.04-.96.67-.35,1.32-.71,1.94-1.1,1.25-.78,2.41-1.65,3.44-2.58.51-.47.99-.96,1.43-1.46.44-.5.84-1.02,1.21-1.53.72-1.04,1.29-2.11,1.69-3.15.4-1.04.65-2.05.77-2.96.12-.91.11-1.72.02-2.39-.09-.66-.25-1.18-.4-1.51-.08-.17-.14-.29-.19-.37-.05-.08-.08-.13-.08-.13Z"/>
  </g>
</svg>